<svg xmlns="http://www.w3.org/2000/svg" viewBox="0 0 640 480">
  <rect fill="#bf0a30" width="640" height="480"/>
  <rect fill="#fff" y="37" width="640" height="37"/>
  <rect fill="#fff" y="111" width="640" height="37"/>
  <rect fill="#fff" y="185" width="640" height="37"/>
  <rect fill="#fff" y="259" width="640" height="37"/>
  <rect fill="#fff" y="333" width="640" height="37"/>
  <rect fill="#fff" y="407" width="640" height="37"/>
  <rect fill="#002868" width="260" height="259"/>
  <g fill="#fff">
    <polygon points="45,20 50,35 66,35 53,45 58,60 45,50 32,60 37,45 24,35 40,35"/>
    <polygon points="85,20 90,35 106,35 93,45 98,60 85,50 72,60 77,45 64,35 80,35"/>
    <polygon points="125,20 130,35 146,35 133,45 138,60 125,50 112,60 117,45 104,35 120,35"/>
    <polygon points="165,20 170,35 186,35 173,45 178,60 165,50 152,60 157,45 144,35 160,35"/>
    <polygon points="205,20 210,35 226,35 213,45 218,60 205,50 192,60 197,45 184,35 200,35"/>
    <polygon points="25,55 30,70 46,70 33,80 38,95 25,85 12,95 17,80 4,70 20,70"/>
    <polygon points="65,55 70,70 86,70 73,80 78,95 65,85 52,95 57,80 44,70 60,70"/>
    <polygon points="105,55 110,70 126,70 113,80 118,95 105,85 92,95 97,80 84,70 100,70"/>
    <polygon points="145,55 150,70 166,70 153,80 158,95 145,85 132,95 137,80 124,70 140,70"/>
    <polygon points="185,55 190,70 206,70 193,80 198,95 185,85 172,95 177,80 164,70 180,70"/>
    <polygon points="225,55 230,70 246,70 233,80 238,95 225,85 212,95 217,80 204,70 220,70"/>
  </g>
</svg>
